<svg width="318" height="164" viewBox="0 0 318 164" fill="none" xmlns="http://www.w3.org/2000/svg">
    <path opacity="0.2" d="M252.752 -106.028C248.801 -105.294 245.162 -104.347 241.357 -102.825C240.616 -102.415 -11.6869 4.80584 -13.4331 5.67403C-29.6075 12.4846 -42.2012 22.4394 -51.2141 35.5384C-76.7506 72.6524 -67.3304 123.411 -30.1773 148.891C-12.0691 161.309 9.46255 165.747 30.7981 161.787C41.5976 159.783 52.0066 155.675 60.9228 149.395C61.1862 149.346 103.045 120.901 172.326 74.3088C230.681 34.9129 290.996 -5.663 291.474 -6.02378C297.835 -9.92474 303.375 -15.306 307.667 -21.5436C324.835 -46.4942 318.489 -80.6839 293.513 -97.813C281.961 -105.735 267.239 -108.716 252.752 -106.028Z" fill="#B4A0FA"/>
</svg>
