<svg width="437" height="161" viewBox="0 0 437 161" fill="none" xmlns="http://www.w3.org/2000/svg">
    <path opacity="0.2" d="M69.467 284.653C73.8501 284.044 78.2432 283.07 82.2825 281.721C83.0197 281.377 371.448 179.141 373.286 178.462C391.654 172.036 406.496 161.504 417.428 147.585C448.344 107.964 441.175 50.5377 401.627 19.5696C382.389 4.46464 358.549 -2.01684 334.452 0.972432C322.04 2.45717 310.649 6.52143 299.936 12.4268C299.572 12.4169 251.116 41.3537 170.864 88.745C103.193 128.459 33.2912 169.935 32.554 170.28C25.1628 174.453 18.8328 179.748 13.5539 186.531C-7.18837 213.306 -2.41186 251.711 23.9498 272.478C36.7819 282.305 52.6814 286.384 69.467 284.653Z" fill="#A0D2FF"/>
</svg>
